<svg width="207" height="50" viewBox="0 0 207 50" fill="none" xmlns="http://www.w3.org/2000/svg">
<path fill-rule="evenodd" clip-rule="evenodd" d="M88.5596 17.2034V0H94.6341L100.106 7.69852V0H105.741V17.2034L100.181 17.1322L95.1403 10.3226L94.9926 17.2034H88.5596Z" fill="#09AE4C"/>
<path d="M85.7692 0H79.761V17.2034H85.7692V0Z" fill="#09AE4C"/>
<path fill-rule="evenodd" clip-rule="evenodd" d="M42.0575 0H48.4694V8.55613C48.4694 9.57614 47.8698 12.5792 50.3557 12.6504C52.2148 12.7045 52.04 9.82687 52.04 8.55613V0H58.3887V9.72429C58.3887 12.4082 57.7288 14.3713 56.4061 15.6221C55.0833 16.8672 52.9922 17.494 50.1387 17.494C47.2853 17.494 45.2454 16.8786 43.9708 15.6478C42.6932 14.4141 42.0544 12.4424 42.0544 9.72714V0.0028498L42.0575 0Z" fill="#09AE4C"/>
<path fill-rule="evenodd" clip-rule="evenodd" d="M41.1778 12.7786V17.2234H27.4861V0H33.7926V12.7786H41.1778Z" fill="#09AE4C"/>
<path fill-rule="evenodd" clip-rule="evenodd" d="M67.7955 4.63563V7.15717H69.6516C71.0135 7.15717 71.3812 6.3594 71.3812 5.93202C71.3812 4.90631 70.5736 4.63563 70.0313 4.63563H67.7955ZM61.6336 17.2034V0H70.4561C72.6075 0 74.1683 0.415982 75.1385 1.24225C77.989 3.66976 78.4229 7.38226 75.6839 10.0947C74.6625 11.1033 73.3909 11.6105 72.1766 11.6105H67.7684V17.2006H61.6306L61.6336 17.2034Z" fill="#09AE4C"/>
<path d="M170.345 20.2266H164.337V37.43H170.345V20.2266Z" fill="#632C76"/>
<path fill-rule="evenodd" clip-rule="evenodd" d="M88.5352 37.4303V20.2383H94.6097L100.082 27.9339V20.2383H105.716V37.4303L100.157 37.3591L95.1159 30.5552L94.9682 37.4303H88.5352Z" fill="#632C76"/>
<path d="M48.644 20.2266H42.6357V37.4157H48.644V20.2266Z" fill="#632C76"/>
<path d="M61.1428 20.2266H55.7734L50.3196 37.43H55.7643L56.4272 34.7631H60.3624L61.0434 37.43H66.5966L61.1428 20.2266ZM59.2114 30.2044H57.6114L58.4069 27.0931L59.2114 30.2044Z" fill="#632C76"/>
<path d="M76.9919 31.5371H80.4329V32.1497C79.9086 32.4289 79.4295 32.6284 79.0167 32.7537C78.5497 32.8933 78.0435 32.9646 77.5252 32.9646C76.4556 32.9646 75.6541 32.6654 75.0785 32.0471C74.5 31.426 74.2077 30.3348 74.2077 28.7933C74.2077 27.3488 74.5 26.2975 75.0695 25.6706C75.639 25.0438 76.3923 24.7418 77.3746 24.7418C78.0254 24.7418 78.5587 24.8729 78.9565 25.1264C79.3421 25.3743 79.6133 25.7276 79.776 26.2006L79.7821 26.2148L85.9319 25.625L85.7571 25.041C85.4317 23.9583 84.9376 23.0465 84.2807 22.3314C83.6178 21.6105 82.7771 21.0749 81.7888 20.733C80.8095 20.3996 79.4024 20.2344 77.486 20.2344C75.5697 20.2344 73.9094 20.5079 72.7132 21.0378C71.1705 21.7359 69.9833 22.7759 69.1788 24.1207C68.3833 25.4626 67.9766 27.0525 67.9766 28.8446C67.9766 30.5456 68.3472 32.0842 69.0733 33.4033C69.8086 34.7453 70.8632 35.7682 72.201 36.4491C73.5117 37.1158 75.2202 37.452 77.2721 37.452C78.9233 37.452 80.3757 37.2697 81.59 36.905C82.8042 36.5403 84.2054 35.8508 85.7601 34.8564L86.0102 34.6997V27.2149H76.9949V31.5343L76.9919 31.5371Z" fill="#632C76"/>
<path d="M40.9124 25.5289C40.6743 24.4833 40.2826 23.5544 39.7493 22.7595C39.2009 21.9446 38.4958 21.3121 37.6521 20.879C36.8175 20.446 35.7177 20.2266 34.3979 20.2266H27.5581V37.43H34.3979C35.2055 37.43 36.1094 37.2761 37.0857 36.9684C37.854 36.7291 38.5742 36.2504 39.228 35.5381C39.8668 34.8458 40.376 33.9796 40.7316 32.9653C41.0932 31.9481 41.2649 30.5777 41.2649 28.777C41.2649 27.643 41.1444 26.5489 40.9094 25.5318M32.8643 24.9534H33.3916C34.3256 24.9534 34.9614 25.1927 35.335 25.6913C35.6062 26.056 35.9377 26.9051 35.9377 28.871C35.9377 30.0933 35.8412 30.9737 35.6514 31.4866C35.4857 31.9424 35.2597 32.2587 34.9945 32.424C34.7957 32.5465 34.3527 32.6918 33.3765 32.6918H32.8673V24.9562L32.8643 24.9534Z" fill="#632C76"/>
<path d="M142.576 31.6187C142.576 32.7099 142.254 33.7271 141.627 34.6502C141 35.5677 140.114 36.2714 138.99 36.7444C137.888 37.206 136.489 37.4453 134.835 37.4453C131.873 37.4453 129.864 36.8982 128.691 35.7728C127.54 34.673 126.884 33.257 126.733 31.5646L126.7 31.1913L132.328 30.8523L132.373 31.1913C132.473 31.8808 132.66 32.4051 132.94 32.7498C133.398 33.3083 134.046 33.5789 134.914 33.5789C135.549 33.5789 136.037 33.4422 136.363 33.1715C136.673 32.9151 136.824 32.6273 136.824 32.3053C136.824 31.9834 136.679 31.727 136.384 31.4705C136.161 31.2768 135.552 30.9748 133.925 30.63C131.584 30.1286 129.951 29.4676 128.935 28.6156C127.89 27.7438 127.354 26.6127 127.354 25.2593C127.354 24.3703 127.622 23.5241 128.161 22.7378C128.694 21.9542 129.499 21.3303 130.56 20.8858C131.596 20.4499 133.021 20.2305 134.802 20.2305C136.996 20.2305 138.701 20.6351 139.879 21.4357C141.081 22.2505 141.805 23.5526 142.028 25.3049L142.076 25.6924L136.492 26.0058L136.435 25.681C136.321 25.057 136.095 24.6068 135.757 24.339C135.417 24.0712 134.923 23.9316 134.29 23.9316C133.871 23.9316 133.181 24.0427 132.952 24.4387C132.47 25.2792 133.856 25.8434 134.462 25.9687C136.119 26.3106 137.86 26.6696 139.382 27.4076C141.142 28.2595 142.573 29.5815 142.573 31.6187" fill="#632C76"/>
<path d="M207 31.6187C207 32.7099 206.677 33.7271 206.051 34.6502C205.424 35.5677 204.538 36.2714 203.414 36.7444C202.311 37.206 200.913 37.4453 199.259 37.4453C196.297 37.4453 194.287 36.8982 193.115 35.7728C191.964 34.673 191.307 33.257 191.154 31.5646L191.121 31.1913L196.749 30.8523L196.794 31.1913C196.891 31.8808 197.081 32.4051 197.361 32.7498C197.819 33.3083 198.467 33.5789 199.334 33.5789C199.97 33.5789 200.458 33.4422 200.784 33.1715C201.094 32.9151 201.245 32.6273 201.245 32.3053C201.245 31.9834 201.1 31.727 200.805 31.4705C200.582 31.2768 199.97 30.9748 198.346 30.63C196.005 30.1286 194.375 29.4676 193.356 28.6156C192.305 27.7438 191.774 26.6127 191.774 25.2593C191.774 24.3703 192.043 23.5241 192.579 22.7378C193.112 21.9542 193.917 21.3303 194.977 20.8858C196.014 20.4499 197.439 20.2305 199.217 20.2305C201.41 20.2305 203.116 20.6351 204.294 21.4357C205.499 22.2505 206.219 23.5526 206.442 25.3049L206.494 25.6924L200.907 26.0058L200.85 25.681C200.736 25.057 200.51 24.6068 200.172 24.339C199.832 24.0712 199.334 23.9316 198.705 23.9316C198.198 23.9316 197.828 24.0256 197.596 24.2108C197.382 24.3874 197.279 24.5783 197.279 24.8148C197.279 24.906 197.307 25.0456 197.518 25.2194C197.611 25.3049 197.936 25.5015 199.075 25.7294C201.374 26.2024 202.983 26.6753 203.996 27.1683C205.023 27.6697 205.789 28.3136 206.271 29.0715C206.747 29.8265 206.988 30.6842 206.988 31.6215" fill="#632C76"/>
<path d="M160.784 20.25V25.3187H155.397V37.4705H148.991V25.3187H143.606V20.25H160.784Z" fill="#632C76"/>
<path d="M115.599 27.2692C115.443 28.9103 113.276 29.54 112.24 28.2493C111.354 27.1438 112.035 25.3801 113.804 25.3203C115.238 25.4086 115.669 26.5626 115.599 27.2692Z" fill="#09AE4C"/>
<path d="M120.758 35.0235C120.188 35.6247 119.348 36.1632 119.309 35.9552C119.263 35.7187 120.228 34.5192 120.981 34.2172C121.34 34.1146 121.213 34.3995 121.141 34.5277C121.086 34.6274 120.975 34.7927 120.758 35.0235Z" fill="#09AE4C"/>
<path d="M119.324 21.5401C119.426 21.6028 119.761 21.8165 119.764 21.9019C119.725 21.9333 119.541 21.8592 119.221 21.6769C118.748 21.409 118.315 21.0871 117.844 20.8164L117.875 20.8278C118.417 21.0529 118.486 21.0814 118.866 21.278L119.221 21.4774C119.255 21.4945 119.297 21.5202 119.327 21.5401" fill="#09AE4C"/>
<path d="M115.733 35.9619C115.504 36.8879 113.768 37.0133 113.189 36.1471C112.876 35.677 113.159 34.9704 114.331 34.8906C115.467 34.8963 115.838 35.5345 115.733 35.9648" fill="#09AE4C"/>
<path d="M115.563 20.6463C115.572 21.1079 114.192 21.2475 113.761 20.8287C113.472 20.5466 113.966 20.2389 114.693 20.2503C114.714 20.2503 114.744 20.2503 114.765 20.2503C115.536 20.2987 115.563 20.6093 115.566 20.6435" fill="#09AE4C"/>
<path d="M110.956 27.1768C110.797 28.1569 109.619 28.6157 109.049 27.9204C108.516 27.268 108.968 26.0542 109.998 25.9688C110.745 25.9801 111.05 26.6013 110.956 27.1768Z" fill="#09AE4C"/>
<path d="M110.947 33.1508C111.041 34.017 110.095 34.3133 109.314 33.6636C108.477 32.9656 108.573 31.8829 109.471 31.8516C109.495 31.8516 109.528 31.8516 109.552 31.8516C110.309 31.9028 110.884 32.5639 110.947 33.1536" fill="#09AE4C"/>
<path d="M111.685 22.2835C111.291 22.9815 110.034 23.369 109.844 22.8505C109.688 22.4203 110.492 21.7051 111.236 21.6168C111.797 21.574 111.887 21.9302 111.685 22.2835Z" fill="#09AE4C"/>
<path d="M116.886 37.1757C116.654 37.3039 115.852 37.5148 115.919 37.3581C115.958 37.2584 116.307 37.0589 116.705 36.9877C117.025 36.9392 117.052 37.019 117.018 37.0703C117.006 37.0874 116.976 37.1273 116.886 37.1757Z" fill="#09AE4C"/>
<path d="M120.872 22.7115C121.104 22.9593 122.59 25.0222 121.752 24.9823C121.493 24.9709 121.101 24.6689 120.845 24.3925C120.426 23.9395 120.188 23.3668 119.809 22.8881C119.317 22.2641 118.757 21.9279 118.519 21.7826C118.031 21.4863 117.452 21.4037 116.94 21.1615C116.889 21.1387 116.762 21.0874 116.633 21.0105C116.572 20.9735 116.545 20.9592 116.497 20.9279L116.47 20.9108L116.461 20.9051C116.449 20.8975 116.407 20.8652 116.334 20.8082C116.28 20.7626 116.262 20.7427 116.232 20.7113C116.205 20.68 116.196 20.6686 116.169 20.6316L116.163 20.6202C116.142 20.5831 116.133 20.5632 116.124 20.5233V20.4948C116.133 20.4635 116.136 20.4521 116.166 20.4321L116.187 20.4207H116.19C116.259 20.4008 116.337 20.3979 116.53 20.435C116.747 20.4805 117.293 20.6173 117.714 20.9108C119.537 22.1815 120.372 22.7599 120.586 22.5861C120.592 22.4892 120.438 22.3183 120.131 22.0761L120.249 22.1673C120.435 22.3268 120.688 22.5348 120.869 22.7029" fill="#09AE4C"/>
<path d="M123.422 30.4248C123.281 31.025 123.157 31.4714 123.048 31.7639C122.946 32.0089 122.813 32.3366 122.699 32.5731C122.69 32.5902 122.675 32.6158 122.663 32.6329C122.638 31.6471 123.365 30.7239 122.916 29.7039C122.494 28.7409 121.638 29.476 121.388 29.7239C120.716 30.3849 120.095 31.7439 120.041 32.1172C119.957 32.6728 119.481 33.2341 119.167 33.4278C117.953 34.1743 117.04 33.4592 117.091 32.3679C117.136 31.4077 118.092 30.5872 118.842 30.5929C119.716 30.5986 121.343 29.2879 121.192 27.5585C121.111 26.302 120.33 25.4729 120.243 25.3817C119.481 24.6039 118.776 24.3446 118.315 24.262C118.101 24.2249 117.82 24.0939 117.763 24.0597C117.676 24.0084 117.531 23.9286 117.353 23.7748C117.281 23.7092 117.269 23.6978 117.176 23.601L117.142 23.5639L117.13 23.5497C117.064 23.467 117.037 23.4329 116.971 23.3303C116.916 23.242 116.898 23.2078 116.85 23.091C116.817 22.9998 116.817 22.9941 116.793 22.9029L116.781 22.8459V22.8402C116.769 22.7434 116.757 22.6778 116.775 22.5496C116.781 22.5211 116.79 22.4784 116.799 22.4499C116.829 22.3673 116.856 22.2846 116.944 22.1906C116.962 22.1735 116.986 22.1479 117.007 22.1308L117.016 22.1251C117.251 21.9513 117.477 21.9427 117.742 21.9769C118.785 22.1878 119.252 23.0767 119.255 23.0881C119.74 24.0739 121.12 25.7065 121.903 25.8632C121.918 25.8632 123.277 26.0057 121.626 23.5611C121.608 23.5364 121.566 23.4756 121.499 23.3787C122.024 24.0369 122.105 24.1395 122.461 24.7321C122.572 24.9515 122.729 25.2364 122.831 25.4586C122.723 25.7407 122.919 27.416 122.919 27.4331C123.084 28.721 123.328 29.9091 123.419 30.1313C123.445 30.194 123.455 30.2443 123.449 30.2823L123.422 30.4362" fill="#09AE4C"/>
<path d="M123.56 29.2286C123.56 29.2115 123.56 29.1916 123.554 29.1716C123.425 29.1517 123.048 26.4649 123.157 26.3281C123.167 26.3452 123.174 26.3547 123.178 26.3566C123.268 26.6871 123.38 27.1316 123.449 27.465C123.527 28.0861 123.566 28.5562 123.566 28.8753L123.56 29.2286Z" fill="#09AE4C"/>
<path d="M120.839 35.0702C121.957 33.9875 122.099 33.2211 121.65 33.2296C120.842 33.2496 119.077 35.2041 118.884 35.546C118.661 35.9363 117.799 36.6173 117.061 36.5518C116.627 36.5147 116.437 35.9734 117.028 35.3807C117.486 34.922 118.031 34.7596 118.281 34.7368C118.568 34.7112 120.143 34.0559 120.827 32.543C121.071 32.0073 121.135 31.4061 121.472 30.9075C121.831 30.3776 121.951 30.3462 122.397 30.2266C122.792 30.3177 122.804 30.8277 122.789 31.0414C122.735 31.8848 122.343 32.6484 122.189 33.4689C121.852 33.9391 121.472 34.4747 120.839 35.0702Z" fill="#09AE4C"/>
<path d="M120.457 27.1413C120.484 27.6513 120.523 28.3494 119.936 28.8451C119.532 29.1842 119.2 29.1956 119.11 29.1899C118.953 29.1813 118.128 29.1785 117.221 29.9677C116.034 31.002 115.805 32.2528 115.805 32.2642C115.823 32.6716 115.696 33.2557 115.003 33.7172C114.479 34.0648 113.524 34.1047 112.834 33.5662C111.662 32.6573 112.008 30.888 113.792 30.6658C116.805 30.2897 118.474 26.9077 115.865 24.8278C115.166 24.2722 114.355 24.03 113.831 23.993C113.424 23.9616 113.008 23.7365 112.876 23.5884C112.053 22.6795 113.105 21.9843 113.228 21.9073L113.246 21.8988C113.277 21.8817 113.322 21.8589 113.352 21.8418C113.472 21.7877 113.581 21.7364 113.768 21.6937C113.824 21.6823 113.869 21.6737 113.903 21.668C114.042 21.6481 114.108 21.6424 114.256 21.6452C114.361 21.6509 114.394 21.6538 114.521 21.6737C114.602 21.6908 114.672 21.7051 114.768 21.7392C114.858 21.7734 114.889 21.7848 114.991 21.8361H114.994L115.039 21.8646C115.109 21.9073 115.127 21.9159 115.193 21.9643C115.268 22.027 115.365 22.1068 115.449 22.2322C115.548 22.3803 115.606 22.5171 115.621 22.6396C115.756 23.557 116.898 25.0699 118.619 25.4005C120.258 25.7167 120.439 26.8165 120.454 27.147" fill="#09AE4C"/>
<path d="M189.979 31.3348L189.895 31.671C189.584 32.9247 189.087 33.9931 188.415 34.8422C187.737 35.6969 186.884 36.3523 185.875 36.791C184.878 37.2241 183.6 37.4406 182.084 37.4406C180.252 37.4406 178.725 37.1757 177.55 36.6543C176.356 36.1243 175.314 35.1812 174.455 33.8592C173.599 32.54 173.166 30.8362 173.166 28.799C173.166 26.0752 173.934 23.944 175.443 22.4653C176.956 20.9837 179.11 20.2344 181.849 20.2344C183.986 20.2344 185.703 20.6646 186.948 21.5194C188.195 22.3713 189.129 23.6933 189.729 25.4455L189.861 25.8302L184.631 26.9585L184.525 26.6365C184.386 26.1949 184.236 25.8701 184.088 25.682C183.841 25.3515 183.534 25.0979 183.178 24.9213C182.823 24.7446 182.416 24.6563 181.973 24.6563C180.945 24.6563 180.186 25.0438 179.644 25.8387C179.225 26.4428 179.011 27.4314 179.011 28.7734C179.011 30.4459 179.261 31.5884 179.755 32.1725C180.237 32.7423 180.903 33.0215 181.795 33.0215C182.687 33.0215 183.29 32.8022 183.715 32.3463C184.164 31.8705 184.498 31.1496 184.709 30.2122L184.796 29.8248L189.982 31.3462L189.979 31.3348Z" fill="#632C76"/>
<path d="M23.2103 0.485006H0.476077V36.9575H23.2103V0.485006ZM0.238039 0.0234375H23.6863V37.4191H0V0.0234375" fill="#09AE4C"/>
<path fill-rule="evenodd" clip-rule="evenodd" d="M12.0196 30.3387H11.8056L10.5371 28.293C10.1394 27.6576 9.9375 27.1391 9.9375 26.7373C9.9375 26.3128 10.1092 25.9737 10.4497 25.7259C10.7872 25.4808 11.2542 25.3555 11.8478 25.3555C12.4414 25.3555 12.9446 25.478 13.3092 25.723C13.6678 25.9623 13.8486 26.2929 13.8486 26.7088C13.8486 26.9738 13.7702 27.2616 13.6165 27.5835C13.4629 27.9026 12.9326 28.8229 12.0196 30.3387Z" fill="#09AE4C"/>
<path fill-rule="evenodd" clip-rule="evenodd" d="M12.0196 31.3516H11.8056L10.5371 33.3973C10.1394 34.0326 9.9375 34.5512 9.9375 34.9529C9.9375 35.3775 10.1092 35.7165 10.4497 35.9644C10.7872 36.2123 11.2542 36.3348 11.8478 36.3348C12.4414 36.3348 12.9446 36.2123 13.3092 35.9701C13.6678 35.7279 13.8486 35.3974 13.8486 34.9843C13.8486 34.7222 13.7702 34.4315 13.6165 34.1096C13.4629 33.7905 12.9326 32.8702 12.0196 31.3516Z" fill="#09AE4C"/>
<path fill-rule="evenodd" clip-rule="evenodd" d="M12.1944 30.994L12.0859 31.1735C12.8694 32.0625 13.939 33.8176 14.9032 34.3874C15.2528 34.5954 15.6143 34.6153 15.991 34.4529C16.3616 34.2905 16.6689 34.0541 16.9642 33.5583C17.2716 33.0483 17.4162 32.581 17.3981 32.1593C17.383 31.7405 17.1992 31.43 16.8588 31.2277C16.6418 31.0994 16.3646 31.0225 16.0271 30.9969C15.6866 30.9712 13.8968 30.9684 12.1914 30.9969" fill="#09AE4C"/>
<path fill-rule="evenodd" clip-rule="evenodd" d="M12.1944 30.6607L12.0859 30.4812C12.8694 29.5894 13.939 27.8343 14.9032 27.2673C15.2528 27.0593 15.6143 27.0393 15.991 27.2017C16.3616 27.3641 16.6689 27.6006 16.9642 28.0992C17.2716 28.6092 17.4162 29.0765 17.3981 29.4982C17.383 29.917 17.1992 30.2276 16.8588 30.4299C16.6418 30.5581 16.3646 30.635 16.0271 30.6607C15.6866 30.6891 13.8968 30.6891 12.1914 30.6607" fill="#09AE4C"/>
<path fill-rule="evenodd" clip-rule="evenodd" d="M11.5613 30.994L11.6698 31.1735C10.8864 32.0625 9.81669 33.8176 8.85248 34.3874C8.50295 34.5954 8.14138 34.6153 7.76473 34.4529C7.39412 34.2905 7.08979 34.0541 6.79149 33.5583C6.48415 33.0483 6.33952 32.581 6.35458 32.1593C6.36965 31.7405 6.55044 31.43 6.89393 31.2277C7.11088 31.0994 7.38508 31.0225 7.72556 30.9969C8.06605 30.9712 9.85586 30.9684 11.5613 30.9969" fill="#09AE4C"/>
<path fill-rule="evenodd" clip-rule="evenodd" d="M11.5613 30.6607L11.6698 30.4812C10.8864 29.5894 9.81669 27.8343 8.85248 27.2673C8.50295 27.0593 8.14138 27.0393 7.76473 27.2017C7.39412 27.3641 7.08979 27.6006 6.79149 28.0992C6.48415 28.6092 6.33952 29.0765 6.35458 29.4982C6.36965 29.917 6.55044 30.2276 6.89393 30.4299C7.11088 30.5581 7.38508 30.635 7.72556 30.6607C8.06605 30.6891 9.85586 30.6891 11.5613 30.6607Z" fill="#09AE4C"/>
<path fill-rule="evenodd" clip-rule="evenodd" d="M19.1157 24.1713H18.9831L18.1937 22.9005C17.9466 22.5074 17.8201 22.1826 17.8201 21.9347C17.8201 21.6697 17.9255 21.4589 18.1395 21.305C18.3504 21.1511 18.6396 21.0742 19.0072 21.0742C19.3748 21.0742 19.6882 21.1511 19.9142 21.3022C20.1372 21.4532 20.2487 21.6583 20.2487 21.9176C20.2487 22.08 20.2005 22.2623 20.107 22.4618C20.0106 22.6612 19.6822 23.2311 19.1127 24.1741" fill="#09AE4C"/>
<path fill-rule="evenodd" clip-rule="evenodd" d="M19.1157 24.8036H18.9831L18.1937 26.0744C17.9466 26.4676 17.8201 26.7895 17.8201 27.0402C17.8201 27.3052 17.9255 27.5161 18.1395 27.6699C18.3504 27.8238 18.6396 27.9007 19.0072 27.9007C19.3748 27.9007 19.6882 27.8266 19.9142 27.6728C20.1372 27.5218 20.2487 27.3166 20.2487 27.0573C20.2487 26.8921 20.2005 26.7126 20.107 26.5131C20.0106 26.3137 19.6822 25.7439 19.1127 24.8008" fill="#09AE4C"/>
<path fill-rule="evenodd" clip-rule="evenodd" d="M19.2208 24.586L19.1545 24.6971C19.6397 25.2527 20.3086 26.3411 20.9052 26.6944C21.1221 26.8226 21.3481 26.834 21.5831 26.7343C21.8121 26.6317 22.005 26.4864 22.1888 26.1758C22.3816 25.8596 22.472 25.569 22.46 25.3068C22.4509 25.0476 22.3364 24.8538 22.1255 24.7256C21.9899 24.6458 21.8182 24.6002 21.6072 24.5831C21.3963 24.566 20.2845 24.566 19.2238 24.5831" fill="#09AE4C"/>
<path fill-rule="evenodd" clip-rule="evenodd" d="M19.2208 24.3723L19.1545 24.2612C19.6397 23.7085 20.3086 22.6144 20.9052 22.2639C21.1221 22.1357 21.3481 22.1215 21.5831 22.224C21.8121 22.3266 22.005 22.4719 22.1888 22.7825C22.3816 23.0987 22.472 23.3894 22.46 23.6486C22.4509 23.9079 22.3364 24.1017 22.1255 24.2299C21.9899 24.3096 21.8182 24.3552 21.6072 24.3723C21.3963 24.3894 20.2845 24.3894 19.2238 24.3723" fill="#09AE4C"/>
<path fill-rule="evenodd" clip-rule="evenodd" d="M18.829 24.586L18.8953 24.6971C18.4102 25.2527 17.7413 26.3411 17.1447 26.6944C16.9277 26.8226 16.7018 26.834 16.4697 26.7343C16.2407 26.6317 16.0479 26.4864 15.8641 26.1758C15.6713 25.8596 15.5839 25.569 15.5929 25.3068C15.605 25.0476 15.7165 24.8538 15.9274 24.7256C16.063 24.6458 16.2347 24.6002 16.4456 24.5831C16.6596 24.566 17.7684 24.566 18.8321 24.5831" fill="#09AE4C"/>
<path fill-rule="evenodd" clip-rule="evenodd" d="M18.829 24.3723L18.8953 24.2612C18.4102 23.7085 17.7413 22.6144 17.1447 22.2639C16.9277 22.1357 16.7018 22.1215 16.4697 22.224C16.2407 22.3266 16.0479 22.4719 15.8641 22.7825C15.6713 23.0987 15.5839 23.3894 15.5929 23.6486C15.605 23.9079 15.7165 24.1017 15.9274 24.2299C16.063 24.3096 16.2347 24.3552 16.4456 24.3723C16.6596 24.3894 17.7684 24.3894 18.8321 24.3723" fill="#09AE4C"/>
<path fill-rule="evenodd" clip-rule="evenodd" d="M4.83317 24.1713H4.70059L3.91114 22.9005C3.66407 22.5074 3.54053 22.1826 3.54053 21.9347C3.54053 21.6697 3.64599 21.4589 3.85691 21.305C4.06783 21.1511 4.35709 21.0742 4.72771 21.0742C5.09832 21.0742 5.40868 21.1511 5.63466 21.3022C5.85764 21.4532 5.96912 21.6583 5.96912 21.9176C5.96912 22.08 5.92091 22.2623 5.8275 22.4618C5.73108 22.6612 5.40265 23.2311 4.83317 24.1741" fill="#09AE4C"/>
<path fill-rule="evenodd" clip-rule="evenodd" d="M4.83317 24.8036H4.70059L3.91114 26.0744C3.66407 26.4676 3.54053 26.7895 3.54053 27.0402C3.54053 27.3052 3.64599 27.5161 3.85691 27.6699C4.06783 27.8238 4.35709 27.9007 4.72771 27.9007C5.09832 27.9007 5.40868 27.8266 5.63466 27.6728C5.85764 27.5218 5.96912 27.3166 5.96912 27.0573C5.96912 26.8921 5.92091 26.7126 5.8275 26.5131C5.73108 26.3137 5.40265 25.7439 4.83317 24.8008" fill="#09AE4C"/>
<path fill-rule="evenodd" clip-rule="evenodd" d="M4.93836 24.586L4.87207 24.6971C5.35719 25.2527 6.02611 26.3411 6.62271 26.6944C6.83966 26.8226 7.06564 26.834 7.30067 26.7343C7.53268 26.6317 7.72251 26.4864 7.90631 26.1758C8.09915 25.8596 8.18653 25.569 8.17749 25.3068C8.16845 25.0476 8.05395 24.8538 7.84303 24.7256C7.70744 24.6458 7.53569 24.6002 7.32477 24.5831C7.11385 24.566 6.002 24.566 4.94137 24.5831" fill="#09AE4C"/>
<path fill-rule="evenodd" clip-rule="evenodd" d="M4.93836 24.3723L4.87207 24.2612C5.35719 23.7085 6.02611 22.6144 6.62271 22.2639C6.83966 22.1357 7.06564 22.1215 7.30067 22.224C7.53268 22.3266 7.72251 22.4719 7.90631 22.7825C8.09915 23.0987 8.18653 23.3894 8.17749 23.6486C8.16845 23.9079 8.05395 24.1017 7.84303 24.2299C7.70744 24.3096 7.53569 24.3552 7.32477 24.3723C7.11385 24.3894 6.002 24.3894 4.94137 24.3723" fill="#09AE4C"/>
<path fill-rule="evenodd" clip-rule="evenodd" d="M4.54691 24.586L4.6132 24.6971C4.12507 25.2527 3.45917 26.3411 2.86256 26.6944C2.64562 26.8226 2.41963 26.834 2.18762 26.7343C1.95862 26.6317 1.76879 26.4864 1.58198 26.1758C1.39215 25.8596 1.30176 25.569 1.31381 25.3068C1.32285 25.0476 1.43433 24.8538 1.64525 24.7256C1.78085 24.6458 1.95259 24.6002 2.16352 24.5831C2.37444 24.566 3.48629 24.566 4.54691 24.5831" fill="#09AE4C"/>
<path fill-rule="evenodd" clip-rule="evenodd" d="M4.54691 24.3723L4.6132 24.2612C4.12507 23.7085 3.45917 22.6144 2.86256 22.2639C2.64562 22.1357 2.41963 22.1215 2.18762 22.224C1.95862 22.3266 1.76879 22.4719 1.58198 22.7825C1.39215 23.0987 1.30176 23.3894 1.31381 23.6486C1.32285 23.9079 1.43433 24.1017 1.64525 24.2299C1.78085 24.3096 1.95259 24.3552 2.16352 24.3723C2.37444 24.3894 3.48629 24.3894 4.54691 24.3723Z" fill="#09AE4C"/>
<path fill-rule="evenodd" clip-rule="evenodd" d="M11.8627 19.8012C11.6638 19.8126 11.3805 19.9607 11.3052 20.049C10.7689 20.6816 9.74742 21.2144 9.03933 20.7756C8.8947 20.6873 8.71693 20.5448 8.63859 20.3938C8.4578 20.049 8.4819 19.7784 8.7109 19.4821C8.83745 19.3168 8.90374 19.2342 8.90073 19.2285C8.89772 19.1971 8.77418 19.0461 8.57832 18.7726L8.48793 18.5732C8.31919 17.7412 9.54554 17.0631 10.2386 17.4107C10.4284 17.5047 10.6694 17.6073 10.8412 17.7497C11.2239 18.0632 11.5071 18.4535 11.9561 18.4848C12.3689 18.5105 12.8962 17.6415 13.5319 17.3765C14.2822 17.0659 15.4182 17.6586 15.2675 18.539L15.1771 18.7413C14.9813 19.0148 14.8607 19.1658 14.8547 19.1971C14.8547 19.2028 14.918 19.2855 15.0445 19.4507C15.2705 19.747 15.2946 20.0177 15.1169 20.3625C15.0385 20.5135 14.8577 20.6559 14.7161 20.7442C14.008 21.1859 12.9353 20.7385 12.4141 20.069C12.2724 19.8866 12.0675 19.7898 11.8536 19.804" fill="#09AE4C"/>
<path fill-rule="evenodd" clip-rule="evenodd" d="M11.8627 15.8053C11.6638 15.8167 11.3805 15.9649 11.3052 16.0532C10.7689 16.6857 9.74742 17.2213 9.03933 16.7797C8.8947 16.6914 8.71693 16.5461 8.63859 16.3979C8.4578 16.0532 8.4819 15.7854 8.7109 15.4862C8.83745 15.3209 8.90374 15.2383 8.90073 15.2326C8.89772 15.2013 8.77418 15.0503 8.57832 14.7767L8.48793 14.5773C8.31919 13.7453 9.54554 13.0672 10.2386 13.4148C10.4284 13.5089 10.6694 13.6114 10.8412 13.7539C11.2239 14.0673 11.5071 14.4576 11.9561 14.489C12.3689 14.5146 12.8962 13.6485 13.5319 13.3806C14.2822 13.0701 15.4182 13.6599 15.2675 14.5431L15.1771 14.7426C14.9813 15.0161 14.8607 15.1671 14.8547 15.1984C14.8547 15.2041 14.918 15.2867 15.0445 15.452C15.2705 15.7483 15.2946 16.019 15.1169 16.3637C15.0385 16.5148 14.8577 16.6572 14.7161 16.7455C14.008 17.1872 12.9353 16.7398 12.4141 16.0731C12.2724 15.8908 12.0675 15.7939 11.8536 15.8081" fill="#09AE4C"/>
<path fill-rule="evenodd" clip-rule="evenodd" d="M11.8627 11.7076C11.6638 11.719 11.3805 11.8672 11.3052 11.9555C10.7689 12.588 9.74742 13.1208 9.03933 12.6821C8.8947 12.5937 8.71693 12.4513 8.63859 12.3003C8.4578 11.9555 8.4819 11.6877 8.7109 11.3914C8.83745 11.2261 8.90374 11.1435 8.90073 11.1378C8.89772 11.1064 8.77418 10.9554 8.57832 10.6819L8.48793 10.4825C8.31919 9.65051 9.54554 8.97525 10.2386 9.31716C10.4284 9.41403 10.6694 9.51375 10.8412 9.65621C11.2239 9.96962 11.5071 10.3571 11.9561 10.3885C12.3689 10.4141 12.8962 9.54794 13.5319 9.28297C14.2822 8.9724 15.4182 9.56219 15.2675 10.4483L15.1771 10.6477C14.9813 10.9213 14.8607 11.0723 14.8547 11.1036C14.8547 11.1093 14.918 11.1919 15.0445 11.3572C15.2705 11.6535 15.2946 11.9242 15.1169 12.2689C15.0385 12.4199 14.8577 12.5624 14.7161 12.6507C14.008 13.0895 12.9353 12.6422 12.4141 11.9755C12.2724 11.796 12.0675 11.6991 11.8536 11.7105" fill="#09AE4C"/>
<path fill-rule="evenodd" clip-rule="evenodd" d="M11.8627 7.66468C11.6638 7.67607 11.3805 7.82708 11.3052 7.91256C10.7689 8.54508 9.74742 9.07788 9.03933 8.6391C8.8947 8.55078 8.71693 8.40832 8.63859 8.25731C8.4578 7.91256 8.4819 7.64188 8.7109 7.34842C8.83745 7.18316 8.90374 7.10054 8.90073 7.09484C8.89772 7.0635 8.77418 6.90964 8.57832 6.63897L8.48793 6.43952C8.31919 5.60756 9.54554 4.9323 10.2386 5.27705C10.4284 5.37108 10.6694 5.4708 10.8412 5.61611C11.2239 5.92952 11.5071 6.31986 11.9561 6.34835C12.3689 6.37399 12.8962 5.50784 13.5319 5.24001C14.2822 4.92945 15.4182 5.51924 15.2675 6.40249L15.1771 6.60478C14.9813 6.8783 14.8607 7.02931 14.8547 7.06065C14.8547 7.06635 14.918 7.14897 15.0445 7.31423C15.2705 7.61054 15.2946 7.88122 15.1169 8.22597C15.0385 8.37698 14.8577 8.51943 14.7161 8.60776C14.008 9.04653 12.9353 8.59921 12.4141 7.9325C12.2724 7.75015 12.0675 7.65328 11.8536 7.66752" fill="#09AE4C"/>
<path fill-rule="evenodd" clip-rule="evenodd" d="M11.8688 3.97825C11.7241 3.98679 11.5162 4.09506 11.462 4.16059C11.0703 4.62216 10.323 5.00965 9.8108 4.69054C9.70534 4.62501 9.57577 4.52244 9.51852 4.41132C9.38594 4.16059 9.40703 3.964 9.57276 3.74746C9.66315 3.62779 9.71136 3.56511 9.71136 3.56226C9.70835 3.53947 9.61795 3.42835 9.47634 3.22891L9.41005 3.0836C9.28651 2.47957 10.1784 1.98381 10.6846 2.23739C10.8232 2.30577 10.998 2.37985 11.1245 2.48242C11.4017 2.71035 11.6096 2.99527 11.9381 3.01522C12.2364 3.03516 12.6221 2.40264 13.0891 2.2089C13.6345 1.98381 14.4631 2.41404 14.3516 3.05511L14.2853 3.20326C14.1437 3.40271 14.0533 3.51383 14.0503 3.53377C14.0503 3.53662 14.0985 3.5993 14.1889 3.71897C14.3546 3.93551 14.3727 4.1321 14.2431 4.38283C14.1859 4.4911 14.0533 4.59652 13.9509 4.66205C13.4356 4.98401 12.6522 4.65635 12.2725 4.17199C12.1701 4.03808 12.0194 3.9697 11.8658 3.97825" fill="#09AE4C"/>
<path fill-rule="evenodd" clip-rule="evenodd" d="M11.8627 23.899C11.6638 23.9104 11.3805 24.0586 11.3052 24.1469C10.7689 24.7795 9.74742 25.3122 9.03933 24.8735C8.8947 24.7851 8.71693 24.6427 8.63859 24.4888C8.4578 24.1469 8.4819 23.8734 8.7109 23.5799C8.83745 23.4147 8.90374 23.3321 8.90073 23.3264C8.89772 23.295 8.77418 23.144 8.57832 22.8705L8.48793 22.671C8.31919 21.8391 9.54554 21.161 10.2386 21.5086C10.4284 21.6026 10.6694 21.7052 10.8412 21.8476C11.2239 22.161 11.5071 22.5514 11.9561 22.5799C12.3689 22.6084 12.8962 21.7394 13.5319 21.4744C14.2822 21.1638 15.4182 21.7536 15.2675 22.6369L15.1771 22.8363C14.9813 23.1098 14.8607 23.2608 14.8547 23.2922C14.8547 23.295 14.918 23.3805 15.0445 23.5429C15.2705 23.8392 15.2946 24.1099 15.1169 24.4546C15.0385 24.6056 14.8577 24.7481 14.7161 24.8364C14.008 25.2781 12.9353 24.8279 12.4141 24.1612C12.2724 23.9817 12.0675 23.882 11.8536 23.8962" fill="#09AE4C"/>
<path d="M12.1134 1.35812L11.6675 1.35938L11.7427 25.3409L12.1887 25.3397L12.1134 1.35812Z" fill="#09AE4C"/>
<path d="M74.6054 49.6055C73.9907 49.8676 73.3007 49.9987 72.5323 49.9987C71.8182 49.9987 71.1794 49.8818 70.6159 49.6482C70.0525 49.4146 69.5704 49.0926 69.1696 48.6852C68.7689 48.2749 68.4646 47.7962 68.2536 47.2435C68.0427 46.6936 67.9373 46.1038 67.9373 45.477C67.9373 44.8502 68.0457 44.3003 68.2657 43.7475C68.4856 43.1976 68.793 42.7133 69.1907 42.2945C69.5854 41.8756 70.0615 41.5451 70.6159 41.3001C71.1704 41.0551 71.7881 40.9297 72.466 40.9297C72.8457 40.9297 73.1922 40.9553 73.5056 41.0038C73.8189 41.0522 74.1142 41.1263 74.3824 41.2289C74.6536 41.3286 74.9067 41.4539 75.1447 41.5992C75.3797 41.7446 75.6117 41.9098 75.8377 42.0922L75.1778 42.8443C75.0031 42.6933 74.8253 42.5594 74.6355 42.4369C74.4457 42.3144 74.2408 42.2118 74.0238 42.1235C73.8039 42.0352 73.5628 41.9668 73.3007 41.9155C73.0385 41.8671 72.7492 41.8414 72.4268 41.8414C71.9267 41.8414 71.4656 41.9383 71.0438 42.1292C70.622 42.3201 70.2604 42.5822 69.9591 42.907C69.6578 43.2318 69.4227 43.6165 69.251 44.0553C69.0762 44.494 68.9919 44.9584 68.9919 45.4514C68.9919 45.9785 69.0762 46.4657 69.245 46.913C69.4107 47.3603 69.6517 47.7478 69.9591 48.0726C70.2694 48.4003 70.6431 48.6538 71.083 48.8362C71.5229 49.0214 72.0171 49.1126 72.5685 49.1126C73.0867 49.1126 73.5718 49.0271 74.0268 48.8533C74.4818 48.6823 74.8675 48.4743 75.1778 48.2322V46.044H72.4268V45.1664H76.1601V48.6538C75.7413 49.0214 75.22 49.3348 74.6054 49.5969" fill="#632C76"/>
<path d="M84.1177 47.911C83.9399 48.3241 83.6958 48.6859 83.3855 48.9965C83.0751 49.3042 82.7075 49.5492 82.2766 49.7287C81.8457 49.9082 81.3787 49.9966 80.8815 49.9966C80.3844 49.9966 79.9203 49.9082 79.4985 49.7287C79.0767 49.5492 78.7121 49.3071 78.4017 49.0022C78.0884 48.7002 77.8503 48.3412 77.6786 47.9337C77.5068 47.5235 77.4194 47.0904 77.4194 46.6317C77.4194 46.1729 77.5068 45.7342 77.6786 45.3239C77.8503 44.9108 78.0914 44.5489 78.4017 44.2384C78.7121 43.9306 79.0797 43.6856 79.5045 43.5061C79.9324 43.3266 80.3994 43.2383 80.9056 43.2383C81.4119 43.2383 81.8698 43.3266 82.2947 43.5061C82.7196 43.6856 83.0902 43.9278 83.3975 44.2327C83.7079 44.5347 83.9489 44.8937 84.1207 45.3039C84.2924 45.7142 84.3798 46.1473 84.3798 46.606C84.3798 47.0647 84.2894 47.5007 84.1146 47.9138M83.1745 45.6345C83.051 45.3267 82.8762 45.0589 82.6503 44.8281C82.4273 44.5973 82.1651 44.4178 81.8638 44.2839C81.5625 44.15 81.2371 44.0845 80.8846 44.0845C80.532 44.0845 80.1915 44.1472 79.8902 44.2782C79.5889 44.4093 79.3328 44.586 79.1219 44.8167C78.9109 45.0447 78.7452 45.3125 78.6247 45.6174C78.5042 45.9194 78.4439 46.247 78.4439 46.5975C78.4439 46.9479 78.5042 47.2756 78.6307 47.5862C78.7543 47.891 78.929 48.1617 79.146 48.3839C79.3659 48.609 79.6251 48.7885 79.9294 48.9196C80.2307 49.0535 80.5561 49.119 80.9087 49.119C81.2612 49.119 81.6017 49.0535 81.903 48.9253C82.2043 48.7971 82.4634 48.6204 82.6804 48.3953C82.8943 48.1702 83.0631 47.9081 83.1836 47.6032C83.3041 47.2984 83.3644 46.9707 83.3644 46.6231C83.3644 46.2755 83.3011 45.945 83.1776 45.6345" fill="#632C76"/>
<path d="M92.0001 47.911C91.8224 48.3241 91.5813 48.6859 91.271 48.9965C90.9576 49.3042 90.59 49.5492 90.1621 49.7287C89.7312 49.9082 89.2642 49.9966 88.767 49.9966C88.2699 49.9966 87.8058 49.9082 87.384 49.7287C86.9622 49.5492 86.5976 49.3071 86.2872 49.0022C85.9769 48.7002 85.7358 48.3412 85.5641 47.9337C85.3923 47.5235 85.3049 47.0904 85.3049 46.6317C85.3049 46.1729 85.3893 45.7342 85.5641 45.3239C85.7358 44.9108 85.9769 44.5489 86.2872 44.2384C86.5976 43.9306 86.9652 43.6856 87.39 43.5061C87.8179 43.3266 88.2849 43.2383 88.7911 43.2383C89.2973 43.2383 89.7553 43.3266 90.1802 43.5061C90.6051 43.6856 90.9757 43.9278 91.283 44.2327C91.5934 44.5347 91.8344 44.8937 92.0062 45.3039C92.1779 45.7142 92.2653 46.1473 92.2653 46.606C92.2653 47.0647 92.1779 47.5007 92.0001 47.9138M91.057 45.6345C90.9335 45.3267 90.7587 45.0589 90.5327 44.8281C90.3098 44.5973 90.0476 44.4178 89.7463 44.2839C89.445 44.15 89.1196 44.0845 88.767 44.0845C88.4145 44.0845 88.074 44.1472 87.7727 44.2782C87.4714 44.4093 87.2153 44.586 87.0043 44.8167C86.7934 45.0447 86.6277 45.3125 86.5042 45.6174C86.3836 45.9194 86.3264 46.247 86.3264 46.5975C86.3264 46.9479 86.3866 47.2756 86.5132 47.5862C86.6367 47.891 86.8115 48.1617 87.0315 48.3839C87.2514 48.609 87.5105 48.7885 87.8119 48.9196C88.1132 49.0535 88.4386 49.119 88.7911 49.119C89.1437 49.119 89.4842 49.0535 89.7855 48.9253C90.0868 48.7971 90.3459 48.6204 90.5599 48.3953C90.7738 48.1702 90.9425 47.9081 91.063 47.6032C91.1836 47.2984 91.2438 46.9707 91.2438 46.6231C91.2438 46.2755 91.1806 45.945 91.057 45.6345Z" fill="#632C76"/>
<path d="M98.9577 49.849V48.5441C98.8191 48.7378 98.6685 48.9202 98.4997 49.094C98.334 49.2706 98.1442 49.4245 97.9393 49.5584C97.7344 49.6923 97.5024 49.7949 97.2493 49.869C96.9962 49.9459 96.7129 49.9829 96.4026 49.9829C95.9988 49.9829 95.6071 49.9089 95.2275 49.7579C94.8478 49.6069 94.5103 49.3903 94.206 49.0997C93.9047 48.8119 93.6606 48.4586 93.4829 48.0398C93.3021 47.621 93.2117 47.148 93.2117 46.6123C93.2117 46.0767 93.3021 45.6037 93.4829 45.1849C93.6636 44.7689 93.9047 44.4156 94.206 44.125C94.5073 43.8372 94.8448 43.615 95.2275 43.4611C95.6041 43.3073 95.9988 43.2304 96.4026 43.2304C96.7129 43.2304 96.9962 43.2674 97.2553 43.3415C97.5144 43.4184 97.7465 43.5181 97.9514 43.6435C98.1562 43.7689 98.3431 43.9142 98.5148 44.0823C98.6835 44.2504 98.8282 44.4242 98.9607 44.6094V40.7031H99.9551V49.8462H98.9607L98.9577 49.849ZM98.798 45.5838C98.6655 45.2789 98.4817 45.0168 98.2557 44.7974C98.0267 44.5809 97.7675 44.4128 97.4813 44.2931C97.192 44.1706 96.8937 44.1108 96.5834 44.1108C96.2549 44.1108 95.9506 44.1677 95.6674 44.2789C95.3811 44.39 95.1371 44.5524 94.9231 44.7661C94.7122 44.9798 94.5465 45.239 94.423 45.5525C94.2964 45.863 94.2361 46.2135 94.2361 46.6038C94.2361 46.9941 94.2994 47.3303 94.423 47.6381C94.5465 47.9458 94.7182 48.2107 94.9322 48.4301C95.1491 48.6495 95.3962 48.8205 95.6794 48.9344C95.9657 49.0513 96.267 49.1082 96.5834 49.1082C96.8998 49.1082 97.192 49.0484 97.4813 48.9287C97.7675 48.8091 98.0297 48.6381 98.2557 48.4244C98.4847 48.2079 98.6655 47.9458 98.798 47.6324C98.9306 47.3218 98.9969 46.977 98.9969 46.6038C98.9969 46.2306 98.9276 45.8887 98.798 45.5809" fill="#632C76"/>
<path d="M106.822 49.8462H105.828V40.7031H106.822V44.4982C107.045 44.1478 107.337 43.8486 107.699 43.6008C108.06 43.3557 108.53 43.2332 109.106 43.2332C109.51 43.2332 109.871 43.2959 110.185 43.4213C110.501 43.5438 110.766 43.7233 110.986 43.9541C111.206 44.1848 111.375 44.4555 111.489 44.7746C111.607 45.0937 111.664 45.4442 111.664 45.826V49.8462H110.67V46.0625C110.67 45.4641 110.507 44.9855 110.191 44.635C109.871 44.2846 109.416 44.1079 108.823 44.1079C108.539 44.1079 108.274 44.1563 108.027 44.2532C107.783 44.3501 107.569 44.4869 107.388 44.6664C107.208 44.8459 107.066 45.0624 106.967 45.3103C106.867 45.561 106.819 45.8374 106.819 46.1365V49.8433L106.822 49.8462Z" fill="#632C76"/>
<path d="M114.189 47.9014C114.327 48.1749 114.505 48.4028 114.716 48.5909C114.933 48.7789 115.174 48.9214 115.439 49.0154C115.707 49.1123 115.988 49.1607 116.28 49.1607C116.744 49.1607 117.145 49.0781 117.473 48.9128C117.805 48.7447 118.109 48.5253 118.383 48.2461L119.004 48.7874C118.669 49.155 118.287 49.4485 117.856 49.6678C117.425 49.8901 116.892 49.9984 116.253 49.9984C115.798 49.9984 115.367 49.9186 114.963 49.7562C114.559 49.5938 114.204 49.363 113.9 49.0667C113.598 48.7704 113.357 48.4142 113.176 47.9954C112.999 47.5765 112.908 47.1178 112.908 46.6164C112.908 46.1491 112.99 45.7103 113.149 45.2943C113.309 44.8812 113.529 44.5222 113.815 44.2173C114.098 43.9125 114.436 43.6703 114.828 43.4965C115.219 43.3199 115.647 43.2344 116.114 43.2344C116.602 43.2344 117.042 43.3227 117.431 43.5022C117.817 43.6817 118.145 43.9267 118.41 44.2344C118.678 44.5422 118.88 44.9069 119.019 45.3228C119.157 45.7417 119.224 46.1861 119.224 46.662V46.7987C119.224 46.85 119.218 46.9041 119.212 46.9611H113.93C113.963 47.3116 114.05 47.6221 114.186 47.8928M118.205 46.2545C118.181 45.9611 118.118 45.6818 118.018 45.414C117.919 45.1462 117.783 44.9125 117.606 44.7131C117.431 44.5137 117.217 44.3513 116.964 44.2316C116.711 44.1091 116.419 44.0492 116.084 44.0492C115.795 44.0492 115.527 44.1062 115.277 44.2202C115.026 44.3313 114.809 44.488 114.623 44.6818C114.436 44.8784 114.282 45.1091 114.162 45.377C114.041 45.6448 113.966 45.9383 113.933 46.2545H118.205Z" fill="#632C76"/>
<path d="M121.671 44.2671C121.352 44.3554 121.032 44.4694 120.722 44.6118L120.427 43.8226C120.797 43.6545 121.171 43.5234 121.55 43.4266C121.927 43.3297 122.361 43.2812 122.852 43.2812C123.765 43.2812 124.467 43.5035 124.955 43.9394C125.446 44.3782 125.693 45.0278 125.693 45.8854V49.8429H124.738V48.8657C124.506 49.1563 124.193 49.4156 123.801 49.6435C123.41 49.8686 122.918 49.9825 122.322 49.9825C122.011 49.9825 121.707 49.9398 121.412 49.8572C121.114 49.7746 120.848 49.6463 120.61 49.4754C120.372 49.3044 120.182 49.0936 120.041 48.8457C119.899 48.595 119.827 48.2987 119.827 47.9568C119.827 47.6149 119.896 47.31 120.032 47.0479C120.167 46.7858 120.366 46.5664 120.619 46.3897C120.872 46.2131 121.174 46.082 121.523 45.9908C121.873 45.8997 122.259 45.8541 122.677 45.8541C123.096 45.8541 123.482 45.8769 123.801 45.9281C124.121 45.9766 124.431 46.045 124.732 46.1276V45.9025C124.732 45.3156 124.558 44.8768 124.211 44.5805C123.862 44.2842 123.373 44.136 122.744 44.136C122.349 44.136 121.987 44.1816 121.665 44.2671M121.355 46.9282C121.02 47.1704 120.851 47.5009 120.851 47.9169C120.851 48.1249 120.897 48.3101 120.987 48.4696C121.077 48.6292 121.201 48.7631 121.355 48.8771C121.511 48.991 121.686 49.0765 121.888 49.1335C122.09 49.1905 122.304 49.2218 122.527 49.2218C122.837 49.2218 123.126 49.1791 123.394 49.0908C123.666 49.0024 123.901 48.8828 124.103 48.7289C124.304 48.575 124.461 48.3898 124.579 48.1762C124.693 47.9625 124.75 47.7288 124.75 47.4696V46.8427C124.503 46.7772 124.217 46.7117 123.895 46.6547C123.572 46.5977 123.208 46.5664 122.795 46.5664C122.168 46.5664 121.686 46.686 121.352 46.9282" fill="#632C76"/>
<path d="M128.263 40.7031H127.269V49.8462H128.263V40.7031Z" fill="#632C76"/>
<path d="M131.283 48.0092C131.283 48.4081 131.388 48.6902 131.593 48.8497C131.798 49.0064 132.069 49.0862 132.407 49.0862C132.578 49.0862 132.741 49.0691 132.892 49.0378C133.042 49.0036 133.205 48.9437 133.377 48.8611V49.6874C133.205 49.7786 133.021 49.8498 132.828 49.8954C132.636 49.941 132.419 49.9638 132.178 49.9638C131.909 49.9638 131.659 49.9296 131.427 49.8612C131.195 49.7956 130.993 49.6874 130.828 49.5421C130.659 49.3968 130.529 49.2059 130.436 48.9751C130.34 48.7415 130.294 48.4622 130.294 48.1346V44.2283H129.363V43.3764H130.294V41.4219H131.286V43.3764H133.404V44.2283H131.286V48.0092H131.283Z" fill="#632C76"/>
<path d="M135.519 49.8462H134.525V40.7031H135.519V44.4982C135.745 44.1478 136.038 43.8486 136.396 43.6008C136.758 43.3557 137.228 43.2332 137.806 43.2332C138.21 43.2332 138.572 43.2959 138.882 43.4213C139.199 43.5438 139.464 43.7233 139.684 43.9541C139.901 44.1848 140.072 44.4555 140.187 44.7746C140.301 45.0937 140.359 45.4442 140.359 45.826V49.8462H139.367V46.0625C139.367 45.4641 139.205 44.9855 138.888 44.635C138.569 44.2846 138.114 44.1079 137.52 44.1079C137.237 44.1079 136.972 44.1563 136.725 44.2532C136.481 44.3501 136.267 44.4869 136.086 44.6664C135.905 44.8459 135.764 45.0624 135.667 45.3103C135.568 45.561 135.516 45.8374 135.516 46.1365V49.8433L135.519 49.8462Z" fill="#632C76"/>
<path d="M150.356 48.8508C150.232 49.0873 150.064 49.2895 149.85 49.4577C149.642 49.6229 149.389 49.754 149.102 49.8394C148.813 49.9278 148.503 49.9705 148.165 49.9705C147.683 49.9705 147.198 49.885 146.707 49.7141C146.216 49.5431 145.782 49.3123 145.402 49.0189L145.909 48.3322C146.267 48.6 146.647 48.8023 147.038 48.9448C147.43 49.0873 147.825 49.1585 148.22 49.1585C148.614 49.1585 148.958 49.0673 149.214 48.885C149.473 48.6998 149.603 48.449 149.603 48.1328V48.1071C149.603 47.9504 149.557 47.8108 149.467 47.694C149.374 47.5772 149.25 47.4746 149.096 47.3863C148.943 47.298 148.762 47.221 148.56 47.1555C148.358 47.09 148.147 47.0244 147.933 46.9675C147.674 46.8934 147.415 46.8108 147.153 46.7224C146.891 46.6341 146.653 46.523 146.442 46.3891C146.231 46.2552 146.059 46.0899 145.927 45.8876C145.794 45.6882 145.728 45.4374 145.728 45.1383V45.1126C145.728 44.8363 145.785 44.5855 145.896 44.3547C146.008 44.1268 146.165 43.9274 146.37 43.765C146.571 43.5997 146.812 43.4743 147.09 43.3889C147.373 43.3005 147.674 43.2578 148.003 43.2578C148.415 43.2578 148.834 43.3233 149.253 43.4516C149.675 43.5826 150.232 43.7536 150.579 43.9701L149.952 44.6967C149.642 44.5058 149.316 44.3548 148.976 44.2408C148.638 44.1268 148.304 44.0727 147.976 44.0727C147.581 44.0727 147.267 44.1639 147.032 44.3434C146.8 44.5229 146.683 44.7451 146.683 45.0129V45.0386C146.683 45.1896 146.731 45.3206 146.825 45.4317C146.918 45.5457 147.048 45.6426 147.207 45.7252C147.367 45.8078 147.548 45.8848 147.756 45.9503C147.964 46.0158 148.177 46.0842 148.403 46.1497C148.663 46.2267 148.919 46.3093 149.172 46.4005C149.425 46.4916 149.657 46.6085 149.862 46.7509C150.07 46.8934 150.235 47.0615 150.359 47.2638C150.482 47.4661 150.546 47.7111 150.546 48.0046V48.0302C150.546 48.3379 150.482 48.6114 150.359 48.8508" fill="#632C76"/>
<path d="M153.143 48.0092C153.143 48.4081 153.248 48.6902 153.453 48.8497C153.658 49.0064 153.929 49.0862 154.267 49.0862C154.439 49.0862 154.601 49.0691 154.752 49.0378C154.903 49.0036 155.065 48.9437 155.237 48.8611V49.6874C155.065 49.7786 154.882 49.8498 154.689 49.8954C154.496 49.941 154.279 49.9638 154.038 49.9638C153.77 49.9638 153.52 49.9296 153.288 49.8612C153.053 49.7956 152.854 49.6874 152.685 49.5421C152.516 49.3968 152.387 49.2059 152.29 48.9751C152.197 48.7415 152.149 48.4622 152.149 48.1346V44.2283H151.218V43.3764H152.149V41.4219H153.143V43.3764H155.261V44.2283H153.143V48.0092Z" fill="#632C76"/>
<path d="M157.723 44.2671C157.401 44.3554 157.084 44.4694 156.774 44.6118L156.479 43.8226C156.849 43.6545 157.223 43.5234 157.603 43.4266C157.979 43.3297 158.416 43.2812 158.907 43.2812C159.82 43.2812 160.522 43.5035 161.01 43.9394C161.502 44.3782 161.749 45.0278 161.749 45.8854V49.8429H160.794V48.8657C160.561 49.1563 160.248 49.4156 159.856 49.6435C159.465 49.8686 158.971 49.9825 158.377 49.9825C158.067 49.9825 157.765 49.9398 157.467 49.8572C157.169 49.7746 156.904 49.6463 156.666 49.4754C156.427 49.3044 156.238 49.0936 156.096 48.8457C155.954 48.595 155.882 48.2987 155.882 47.9568C155.882 47.6149 155.951 47.31 156.09 47.0479C156.226 46.7858 156.424 46.5664 156.678 46.3897C156.931 46.2131 157.232 46.082 157.581 45.9908C157.931 45.8997 158.317 45.8541 158.739 45.8541C159.16 45.8541 159.543 45.8769 159.862 45.9281C160.182 45.9766 160.492 46.045 160.794 46.1276V45.9025C160.794 45.3156 160.619 44.8768 160.269 44.5805C159.92 44.2842 159.432 44.136 158.805 44.136C158.41 44.136 158.049 44.1816 157.726 44.2671M157.404 46.9282C157.069 47.1704 156.901 47.5009 156.901 47.9169C156.901 48.1249 156.946 48.3101 157.036 48.4696C157.127 48.6292 157.25 48.7631 157.404 48.8771C157.56 48.991 157.735 49.0765 157.937 49.1335C158.139 49.1905 158.353 49.2218 158.576 49.2218C158.886 49.2218 159.175 49.1791 159.447 49.0908C159.715 49.0024 159.953 48.8828 160.155 48.7289C160.357 48.575 160.513 48.3898 160.631 48.1762C160.745 47.9625 160.803 47.7288 160.803 47.4696V46.8427C160.552 46.7772 160.266 46.7117 159.947 46.6547C159.624 46.5977 159.26 46.5664 158.847 46.5664C158.22 46.5664 157.741 46.686 157.404 46.9282Z" fill="#632C76"/>
<path d="M164.222 49.8485H163.228V43.3751H164.222V45.0675C164.343 44.7997 164.493 44.5518 164.674 44.3267C164.855 44.1016 165.063 43.9079 165.295 43.7455C165.527 43.5831 165.783 43.4606 166.057 43.3779C166.331 43.2953 166.63 43.2583 166.949 43.2668V44.3068H166.871C166.509 44.3068 166.166 44.3695 165.84 44.4948C165.521 44.6202 165.238 44.8082 164.996 45.0561C164.755 45.3069 164.566 45.6203 164.427 45.9907C164.291 46.3611 164.222 46.7884 164.222 47.2728V49.8542V49.8485Z" fill="#632C76"/>
<path d="M169.342 48.0092C169.342 48.4081 169.447 48.6902 169.652 48.8497C169.86 49.0064 170.128 49.0862 170.466 49.0862C170.638 49.0862 170.8 49.0691 170.951 49.0378C171.102 49.0036 171.264 48.9437 171.436 48.8611V49.6874C171.264 49.7786 171.08 49.8498 170.885 49.8954C170.692 49.941 170.475 49.9638 170.234 49.9638C169.966 49.9638 169.716 49.9296 169.487 49.8612C169.252 49.7956 169.053 49.6874 168.884 49.5421C168.715 49.3968 168.586 49.2059 168.489 48.9751C168.393 48.7415 168.348 48.4622 168.348 48.1346V44.2283H167.417V43.3764H168.348V41.4219H169.339V43.3764H171.46V44.2283H169.339V48.0092H169.342Z" fill="#632C76"/>
<path d="M176.98 48.8508C176.857 49.0873 176.688 49.2895 176.474 49.4577C176.266 49.6229 176.016 49.754 175.727 49.8394C175.437 49.9278 175.127 49.9705 174.79 49.9705C174.308 49.9705 173.822 49.885 173.331 49.7141C172.84 49.5431 172.406 49.3123 172.027 49.0189L172.533 48.3322C172.894 48.6 173.271 48.8023 173.663 48.9448C174.054 49.0873 174.446 49.1585 174.841 49.1585C175.236 49.1585 175.579 49.0673 175.838 48.885C176.097 48.6998 176.227 48.449 176.227 48.1328V48.1071C176.227 47.9504 176.182 47.8108 176.091 47.694C175.998 47.5772 175.877 47.4746 175.724 47.3863C175.567 47.298 175.389 47.221 175.187 47.1555C174.986 47.09 174.778 47.0244 174.561 46.9675C174.302 46.8934 174.042 46.8108 173.78 46.7224C173.518 46.6341 173.28 46.523 173.072 46.3891C172.861 46.2552 172.69 46.0899 172.554 45.8876C172.421 45.6882 172.355 45.4374 172.355 45.1383V45.1126C172.355 44.8363 172.412 44.5855 172.524 44.3547C172.632 44.1268 172.792 43.9274 172.994 43.765C173.196 43.5997 173.437 43.4743 173.717 43.3889C173.997 43.3005 174.302 43.2578 174.627 43.2578C175.04 43.2578 175.459 43.3233 175.88 43.4516C176.302 43.5826 176.685 43.7536 177.031 43.9701L176.579 44.6967C176.269 44.5058 175.944 44.3548 175.603 44.2408C175.263 44.1268 174.928 44.0727 174.603 44.0727C174.208 44.0727 173.895 44.1639 173.66 44.3434C173.428 44.5229 173.31 44.7451 173.31 45.0129V45.0386C173.31 45.1896 173.358 45.3206 173.452 45.4317C173.548 45.5457 173.675 45.6426 173.834 45.7252C173.994 45.8078 174.175 45.8848 174.383 45.9503C174.591 46.0158 174.805 46.0842 175.031 46.1497C175.29 46.2267 175.546 46.3093 175.799 46.4005C176.052 46.4916 176.284 46.6085 176.489 46.7509C176.697 46.8934 176.863 47.0615 176.986 47.2638C177.11 47.4661 177.173 47.7111 177.173 48.0046V48.0302C177.173 48.3379 177.11 48.6114 176.986 48.8508" fill="#632C76"/>
<path d="M183.491 49.8462H182.497V40.7031H183.491V44.4982C183.714 44.1478 184.006 43.8486 184.368 43.6008C184.729 43.3557 185.199 43.2332 185.775 43.2332C186.179 43.2332 186.54 43.2959 186.854 43.4213C187.17 43.5438 187.435 43.7233 187.655 43.9541C187.875 44.1848 188.044 44.4555 188.158 44.7746C188.276 45.0937 188.333 45.4442 188.333 45.826V49.8462H187.339V46.0625C187.339 45.4641 187.179 44.9855 186.86 44.635C186.54 44.2846 186.085 44.1079 185.492 44.1079C185.208 44.1079 184.943 44.1563 184.699 44.2532C184.455 44.3501 184.241 44.4869 184.06 44.6664C183.88 44.8459 183.738 45.0624 183.642 45.3103C183.542 45.561 183.494 45.8374 183.494 46.1365V49.8433L183.491 49.8462Z" fill="#632C76"/>
<path d="M190.681 47.9014C190.819 48.1749 190.997 48.4028 191.211 48.5909C191.428 48.7789 191.666 48.9214 191.934 49.0154C192.199 49.1123 192.48 49.1607 192.772 49.1607C193.236 49.1607 193.637 49.0781 193.968 48.9128C194.3 48.7447 194.604 48.5253 194.878 48.2461L195.499 48.7874C195.164 49.155 194.779 49.4485 194.348 49.6678C193.917 49.8901 193.384 49.9984 192.745 49.9984C192.29 49.9984 191.862 49.9186 191.455 49.7562C191.048 49.5938 190.696 49.363 190.391 49.0667C190.087 48.7704 189.849 48.4142 189.668 47.9954C189.488 47.5765 189.4 47.1178 189.4 46.6164C189.4 46.1491 189.481 45.7103 189.641 45.2943C189.801 44.8812 190.024 44.5222 190.307 44.2173C190.59 43.9125 190.928 43.6703 191.323 43.4965C191.714 43.3199 192.142 43.2344 192.609 43.2344C193.1 43.2344 193.54 43.3227 193.926 43.5022C194.312 43.6817 194.64 43.9267 194.905 44.2344C195.17 44.5422 195.375 44.9069 195.514 45.3228C195.649 45.7417 195.719 46.1861 195.719 46.662V46.7987C195.719 46.85 195.713 46.9041 195.707 46.9611H190.425C190.458 47.3116 190.545 47.6221 190.681 47.8928M194.7 46.2545C194.673 45.9611 194.61 45.6818 194.513 45.414C194.414 45.1462 194.278 44.9125 194.104 44.7131C193.929 44.5137 193.715 44.3513 193.462 44.2316C193.209 44.1091 192.916 44.0492 192.582 44.0492C192.293 44.0492 192.022 44.1062 191.775 44.2202C191.527 44.3313 191.31 44.488 191.121 44.6818C190.934 44.8784 190.777 45.1091 190.66 45.377C190.539 45.6448 190.464 45.9383 190.431 46.2545H194.706H194.7Z" fill="#632C76"/>
<path d="M197.825 49.8485H196.831V43.3751H197.825V45.0675C197.946 44.7997 198.096 44.5518 198.277 44.3267C198.458 44.1016 198.666 43.9079 198.898 43.7455C199.13 43.5831 199.386 43.4606 199.663 43.3779C199.937 43.2953 200.236 43.2583 200.555 43.2668V44.3068H200.477C200.115 44.3068 199.772 44.3695 199.449 44.4948C199.127 44.6202 198.847 44.8082 198.603 45.0561C198.361 45.3069 198.172 45.6203 198.033 45.9907C197.897 46.3611 197.828 46.7884 197.828 47.2728V49.8542L197.825 49.8485Z" fill="#632C76"/>
<path d="M201.832 47.9014C201.971 48.1749 202.149 48.4028 202.363 48.5909C202.58 48.7789 202.821 48.9214 203.086 49.0154C203.351 49.1123 203.631 49.1607 203.923 49.1607C204.39 49.1607 204.788 49.0781 205.12 48.9128C205.451 48.7447 205.755 48.5253 206.03 48.2461L206.65 48.7874C206.316 49.155 205.93 49.4485 205.502 49.6678C205.071 49.8901 204.538 49.9984 203.899 49.9984C203.444 49.9984 203.013 49.9186 202.61 49.7562C202.203 49.5938 201.85 49.363 201.546 49.0667C201.245 48.7704 201.004 48.4142 200.823 47.9954C200.645 47.5765 200.555 47.1178 200.555 46.6164C200.555 46.1491 200.636 45.7103 200.793 45.2943C200.952 44.8812 201.175 44.5222 201.459 44.2173C201.745 43.9125 202.082 43.6703 202.474 43.4965C202.866 43.3199 203.294 43.2344 203.761 43.2344C204.252 43.2344 204.692 43.3227 205.077 43.5022C205.463 43.6817 205.792 43.9267 206.057 44.2344C206.322 44.5422 206.527 44.9069 206.662 45.3228C206.798 45.7417 206.867 46.1861 206.867 46.662V46.7987C206.867 46.85 206.861 46.9041 206.855 46.9611H201.573C201.606 47.3116 201.694 47.6221 201.832 47.8928M205.852 46.2545C205.825 45.9611 205.761 45.6818 205.665 45.414C205.566 45.1462 205.43 44.9125 205.255 44.7131C205.08 44.5137 204.866 44.3513 204.613 44.2316C204.363 44.1091 204.071 44.0492 203.734 44.0492C203.444 44.0492 203.173 44.1062 202.926 44.2202C202.679 44.3313 202.462 44.488 202.272 44.6818C202.082 44.8784 201.929 45.1091 201.808 45.377C201.688 45.6448 201.612 45.9383 201.576 46.2545H205.852Z" fill="#632C76"/>
</svg>
